<svg xmlns="http://www.w3.org/2000/svg" viewBox="0 0 180 180">
  <defs>
    <linearGradient id="g" x1="0" y1="0" x2="1" y2="1">
      <stop offset="0" stop-color="#8b5cf6"/>
      <stop offset="1" stop-color="#6366f1"/>
    </linearGradient>
  </defs>
  <rect x="10" y="10" width="160" height="160" rx="40" fill="url(#g)"/>
  <path d="M90 38c-22 0-39 15-39 33 0 9.4 5.2 17.6 13 23.2v9.3c0 11.6 20.9 19.2 26 19.2s26-7.6 26-19.2v-9.3c7.8-5.6 13-13.8 13-23.2 0-18-17-33-39-33z" fill="#fff"/>
  <circle cx="74" cy="71" r="7" fill="#8b5cf6"/>
  <circle cx="106" cy="71" r="7" fill="#8b5cf6"/>
  <path d="M69 108c0 12.8 9.4 23 21 23h0c11.6 0 21-10.2 21-23" fill="none" stroke="#fff" stroke-width="7" stroke-linecap="round"/>
</svg>