<svg xmlns="http://www.w3.org/2000/svg" viewBox="0 0 64 64" width="64" height="64">
  <defs>
    <linearGradient id="g" x1="0" y1="0" x2="1" y2="1">
      <stop offset="0" stop-color="#8b5cf6"/>
      <stop offset="1" stop-color="#6366f1"/>
    </linearGradient>
  </defs>
  <rect x="4" y="4" width="56" height="56" rx="14" fill="url(#g)"/>
  <path d="M32 14c-7.5 0-13.5 5.1-13.5 11.3 0 3.2 1.8 6 4.5 7.9v3.2c0 4 7.2 6.6 9 6.6s9-2.6 9-6.6v-3.2c2.7-1.9 4.5-4.7 4.5-7.9C45.5 19.1 39.5 14 32 14z" fill="#fff"/>
  <circle cx="26" cy="25" r="2.4" fill="#8b5cf6"/>
  <circle cx="38" cy="25" r="2.4" fill="#8b5cf6"/>
  <path d="M24 37c0 4.4 3.6 8 8 8h0c4.4 0 8-3.6 8-8" fill="none" stroke="#fff" stroke-width="2.5" stroke-linecap="round"/>
</svg>